<?xml version="1.0" encoding="utf-8"?>
<!-- Generator: Adobe Illustrator 19.0.0, SVG Export Plug-In . SVG Version: 6.00 Build 0)  -->
<svg version="1.1" id="Layer_1" xmlns="http://www.w3.org/2000/svg" xmlns:xlink="http://www.w3.org/1999/xlink" x="0px" y="0px"
	 viewBox="-385 181 188.8 200" style="enable-background:new -385 181 188.8 200;" xml:space="preserve">
<style type="text/css">
	.st0{fill:#B1B1B1;}
	.st1{fill:#A4120D;}
	.st2{fill:#DB1B16;}
	.st3{fill:#F0F0F0;}
</style>
<g id="XMLID_3678_">
	<polygon id="XMLID_3676_" class="st0" points="-290.9,181 -385,214.1 -370.1,337.4 -290.8,381 -211.1,336.8 -196.2,213.5 	"/>
	<polygon id="XMLID_3675_" class="st1" points="-205.6,220.7 -291.1,191.5 -291.1,370.6 -219.4,330.9 	"/>
	<polygon id="XMLID_3674_" class="st2" points="-374.4,221.2 -361.7,331.4 -291.1,370.6 -291.1,191.5 	"/>
	<path id="XMLID_3680_" class="st3" d="M-267.6,286.8l-23.5,11h-24.8l-11.7,29.2l-21.7,0.4l58.2-129.4L-267.6,286.8z M-269.9,281.3
		l-21.1-41.8l-17.3,41.1h17.2L-269.9,281.3z"/>
	<polygon id="XMLID_1056_" class="st0" points="-291.1,198 -291,239.5 -271.3,280.6 -291.1,280.6 -291.1,297.8 -263.8,297.8 
		-251,327.4 -230.3,327.8 	"/>
</g>
<g>
	<path class="st0" d="M-228.1,244v5.1h-19.2c0.2-1.9,0.8-3.8,1.9-5.5c1-1.7,3.1-4,6.2-6.9c2.5-2.3,4-3.9,4.6-4.7
		c0.8-1.1,1.1-2.3,1.1-3.4c0-1.2-0.3-2.2-1-2.8c-0.7-0.7-1.6-1-2.7-1c-1.1,0-2.1,0.3-2.7,1c-0.7,0.7-1.1,1.8-1.2,3.4l-5.5-0.5
		c0.3-3,1.3-5.2,3.1-6.5c1.7-1.3,3.9-2,6.4-2c2.8,0,5,0.8,6.7,2.3s2.4,3.4,2.4,5.7c0,1.3-0.2,2.5-0.7,3.7c-0.5,1.2-1.2,2.4-2.2,3.7
		c-0.7,0.8-1.9,2.1-3.6,3.7c-1.7,1.6-2.8,2.6-3.3,3.2c-0.5,0.5-0.8,1-1.1,1.5H-228.1z"/>
</g>
</svg>
